<svg 
fill="#6B7280"
xmlns="http://www.w3.org/2000/svg" xml:space="preserve" width="4.82431in" height="2.63237in" version="1.1" style="shape-rendering:geometricPrecision; text-rendering:geometricPrecision; image-rendering:optimizeQuality; fill-rule:evenodd; clip-rule:evenodd"
viewBox="0 0 4824.31 2632.37"
 xmlns:xlink="http://www.w3.org/1999/xlink"
 xmlns:xodm="http://www.corel.com/coreldraw/odm/2003">
 <g id="Layer_x0020_1">
  <g id="_1624010622144">
   <path d="M2599.46 537.66c30.95,106.33 76.85,206.98 100.32,316.15 -4.85,5.26 -14.8,9.46 -22.65,3.46 -10.73,-14.75 -15.41,-36.07 -29.77,-46.88 -6.11,5.31 -5.8,12.89 -5.44,21.74l-1.26 0.05c7.3,116.16 32.34,232.86 38.38,349.07 13.78,119.69 33.64,264.45 15.77,384.18 -14.87,38.58 -29.43,84.75 -69.04,106.63 -43.45,20.77 -94.39,44.38 -144.4,28.71 -72.86,-17.26 -138.69,-79.12 -185.52,-140.5 -22.85,90.82 8.84,184.46 82.09,242.21 147.21,101.56 370.55,53.15 519.7,-13.74 32.24,-16.51 68.47,-28.13 92.65,-55.7 34.69,-79.91 83.5,-155.33 137.46,-228.43 3.79,-0.16 10.06,-1.67 7.79,4.74 -0.12,27.86 -25.93,46.64 -36.32,71.11 -22.2,45.22 -54.71,85.79 -71.74,133.33 66.74,-39.44 137.26,-79.05 195.43,-142.2 -13.61,-53.88 -49.54,-96.7 -71.83,-146.42 -19.35,-39.72 -36.22,-80.8 -46.89,-124.67 -11.98,-14.46 -26.05,-30.83 -32.71,-48.39 -6.69,-17.66 3.47,-93.19 11.06,-108.94l12.79 3.27 113.65 147.24c0.2,5.06 1.78,12.59 -5.7,15.43 -18.85,3.31 -29.95,-20.29 -42.95,-28.62 -6.11,5.32 -8.22,15.53 -2.85,22.9 31.48,88.59 122.95,158.25 92.08,269.64 17.48,86.63 -75.07,144.86 -134.07,187.79 -43.19,27.09 -86.38,54.18 -128.2,83.75 -3.76,31.8 2.54,61.92 21.17,83.94 22.31,19.34 50.52,28.31 80.7,23.27 68.62,-24.33 122,-80.96 174.16,-136.26 120.1,-158.09 285.48,-230.71 465.05,-265.93l2.42 -2.63c-27.38,-81.16 -8.32,-171.81 17.79,-245.04 17.4,-38.69 56.75,-66.89 97.35,-64.76 31.7,1.24 53.32,34.52 64.46,59.38 26.92,69.78 9.81,146.44 -8.98,213.03 -18.77,36.22 -49.01,70.37 -80.78,98.26 28.1,36.82 68.41,63.02 115.12,59.83 46.61,-5.71 88.94,-22.64 120.45,-56.84 -0.51,-197.45 -36.09,-385.87 -46.66,-581.64l-23.11 -347.16c-6.46,-33.91 -31.87,-67.05 -19.37,-101.74 12.96,-23.31 16.87,-51.33 29.84,-74.64l8.9 0.9c32.11,103.75 75.07,194.39 99.64,299.72 -19.8,10.94 -27.21,-15.34 -35.21,-25.14 -8,-9.8 -8.46,-21.17 -17.67,-29.65 -21.02,12.25 -2.29,36.8 -6.52,57.23 12.85,251.37 56.62,485.03 64.41,736.61 2.04,18.9 -2.24,38.07 -6.51,57.23 -0.11,-2.53 -1.52,-6.26 0.96,-7.63l-1.32 -1.2c-21.94,51.53 -27.24,107.44 -84.07,141.43 -39.4,26.93 -89.28,45.44 -139.19,32.3 -60.02,-12.73 -96.78,-75.78 -119.03,-124.24 -89.85,31.54 -190.58,44.54 -273.33,94.77 -142.47,75.47 -227.95,275.19 -392.41,308.52 -47.91,4.5 -94.34,-16.38 -116.27,-57.26 2.32,-5.16 -4.05,-6.17 -5.47,-9.9l-2.53 0.11c-15.2,-31.02 -15.59,-71.52 -16.99,-105.63 -24.01,0.98 -48.72,15.92 -71.05,26.96 -141.14,46.3 -325.3,93.1 -470.8,33.26 -122.54,-55.74 -164.63,-186.92 -160.77,-308.6 -0.29,-37.96 13.42,-73.97 11.91,-110.62 -16.35,-28.44 -33.93,-55.57 -53.92,-80.07 -1.97,44.39 14.26,100.68 -19.62,138.78 -35.26,66 -110.78,76.7 -174.45,98.3 -139.55,23.45 -278.94,50.69 -386.52,143.71 -121.94,82.22 -227.69,281.5 -393.7,184.52 -56.36,-47.06 -69.63,-123.73 -57.43,-196.38 13.27,-77.76 50.96,-146.4 96.34,-212.82 -105.02,28.61 -189.95,110.14 -261.6,200.74 -53.21,67.29 -89.39,134.23 -161.13,185.26 -42.54,30.26 -90.39,48.59 -143.46,37.25 -56.18,-15.94 -86.38,-47.26 -104.78,-85.57 -64.46,-136.17 98,-384.81 110.12,-370.35 -0.02,30.38 -23.2,51.58 -30.95,78.48 -26.31,53.32 -118.71,268.08 -12.52,311.92 53.67,8.12 97.81,-16.7 137.86,-48.46 57.63,-45.7 92.33,-96.86 137.05,-154.84 76.69,-99.41 161.77,-197.6 272.81,-238.19 60.73,-31.61 131.19,-42.09 200.33,-53.8 -48.96,-82.8 -79.34,-175.22 -87.28,-276.17 -16.57,-33.5 -48.35,-67.64 -29.89,-111.43l7.77 -57.28c21.33,-4.68 22.37,20.6 31.63,30.34 39.4,65.48 77.58,132.26 109.55,201.84 -4.95,2.73 -3.11,16.59 -13.54,9.42 -13,-8.33 -28.84,-24.13 -43.31,-37.46 -20.6,22.36 5.81,49.13 10.59,72.98 34.27,94.8 136.89,189.33 239.77,197.76 13,8.33 47.92,-4.5 40.31,26.19 -6.5,26.85 -1.45,57.02 -5.37,85.04 -114.83,-21.87 -239.22,-61.07 -357.93,-23.28 -49.69,53.93 -81.16,119.79 -106.32,185.38 -11.98,47.33 -29.5,113.87 7.64,155.38 27.94,33.04 72.54,40.07 109.87,24.61 138.53,-79.11 237.61,-224.95 381.76,-290.36 132.52,-71.27 306.69,-53.09 435.06,-133.05 18.44,-13.42 34.09,-33.05 40.84,-53.57 -78.39,-182.86 -272.13,-307.83 -402.72,-467.02 -18.35,-46.09 -8.04,-103.47 12.94,-147.37 69.02,-76.25 161.39,-107.9 248.41,-146.91 129.77,-45.83 252.75,-102.78 393.67,-123.76 26.8,5.22 62.49,11.36 68.89,44 3.5,54.29 -26.23,101.08 -49.64,147.61 -105.74,106.88 -215.59,206.32 -314.6,323.04 -5.9,10.37 -16.86,20.95 -28.08,25.21 -2.63,-2.43 -1.63,-8.8 2.06,-11.48 87.91,-140.32 206.15,-281.89 334.49,-393.48 7.27,-7.89 6.91,-16.74 -2.15,-21.43 -41.43,-22.35 -88.56,1.1 -127.37,11.56 -158.52,54.61 -319.73,105.53 -461.58,196.17 -14.54,15.79 -33.19,24.15 -46.41,41.15 5.78,17.48 27.31,17.87 39.21,30.04 58.58,39.37 114.89,85.16 179.17,109.1 6.11,-5.31 -0.46,-11.37 -0.72,-17.69 -39.99,-49 -99,-68.09 -140.04,-111.97 -0.26,-6.32 -8.15,-13.59 -0.83,-20.22 53.67,-18.66 124.59,-17.78 163.16,27.48 4.25,11.22 -2.91,21.64 -14.19,24.63 -8.89,-0.9 -16.32,3.2 -22.9,-2.86 10.8,-14.37 -11.15,-24.86 -20.3,-32.08 -19.47,-11.86 -43.54,-12.14 -66.39,-13.73 -7.27,7.9 6.89,13.64 8.47,21.17 41.89,33.72 95.95,55.56 128.2,101.07 0.36,8.85 8.36,18.65 1.14,27.8 -9.28,20.63 -31.02,15.2 -48.56,19.71 -10.26,-3.37 -20.43,-4.22 -29.48,-8.92l0.26 6.32c120.88,107.7 206.89,229.48 289.22,353.96 20.77,-48.96 36.44,-98.96 61.06,-146.81 3.79,-0.15 7.58,-0.31 9,3.43 -0.54,17.74 -7.5,33.22 -13.19,48.65 -8.45,40.85 -23.27,80.7 -35.56,120.44 61.4,77.23 148.76,139.47 250.51,120.1 37.49,-11.67 76.36,-20.85 102.81,-54.85 -1.19,-121.47 -21.13,-237.11 -31.11,-356.96 -12.96,-161.49 -35.82,-317.52 -53.83,-478.81l-20.86 -76.36c7.39,-35.75 21.26,-67.96 31.24,-102.55 7.48,-2.84 15.37,4.43 16.9,10.7zm1266.01 836.67c12.15,18.49 16.88,41.08 22.82,62.36 -23.62,41.48 -65.7,64.72 -102.74,87.76 -16.87,-41.08 -25.11,-87.58 -30.87,-135.44 5.38,-23 28.82,-37.89 47.42,-47.52 26.43,-3.61 51.01,9.3 63.37,32.84z"/>
   <path d="M3284.22 536.14c31.97,69.57 60.15,139.31 90.85,208.93 -1,6.37 3.15,15.06 -5.59,17.95 -26.9,-7.76 -29.52,-40.56 -49.04,-53.69 29.07,245.65 59.51,493.77 89.9,740.63 7,78.19 -0.04,153.17 -41.94,211.85 -8.9,-0.9 -9.75,9.26 -13.33,14.47l-2.53 0.11c10.07,-32.06 14.94,-67.71 12.23,-103.04l-6.31 -92.15 -54.65 -437.01c-20.15,-120.7 -29.12,-246.91 -41.89,-372.97 -10.04,-28.7 -27.66,-57.09 -23.95,-90.16l23.68 -70.59c13.91,-0.57 17.16,17.02 22.57,25.66z"/>
   <path d="M2813.7 545.32c38.44,73.11 64.46,151.79 95.48,229l4.52 17.54c-33.86,7.72 -28.09,-36.82 -51.41,-49.79l-2.37 3.89c20.71,134.6 31.27,268.35 46.98,404.41 11.33,152.7 41.67,305.89 34.15,461.9 -9.5,45.96 -13.91,92.98 -41.41,132.08l-8.85 0.36c10.69,-78.92 -1.07,-149.33 -1.96,-232.83 -28.38,-259.61 -52.96,-519.36 -85.03,-776.28 9.61,-43.44 -38.6,-76.9 -23.94,-120.54l28.8 -69.54 5.06 -0.21z"/>
   <path d="M3134.67 562.53c53.12,91.49 61.46,232.93 17.38,330.94 -3.52,-23.91 8.19,-47.17 7.15,-72.44 6.69,-83.82 -19.38,-163.77 -61.41,-231.67 0.48,-19 0.92,-39.28 9.09,-56.07 15.22,0.64 18.52,19.49 27.79,29.24z"/>
   <path d="M3585.12 650.37c9.3,41.39 -0.57,78.5 -15.6,113.3 -2.94,-10 4.12,-22.95 4.92,-34.38 9.78,-70.03 -39.57,-131.3 -100.36,-162.97 -11.58,-4.59 -23.16,-9.18 -32.27,-15.13 -0.46,-11.37 2.91,-21.64 7.55,-31.96 64.87,7.46 120.64,71 135.77,131.14z"/>
   <path d="M3821.07 539.42c15.41,36.07 15.85,77.83 6.04,116.2l39.78 43.94c-1.75,19.06 -5.97,39.49 -10.41,54.86 -16.95,-11.96 -30.36,-30.4 -48.67,-44.84 -8.49,9.2 -11.7,23.27 -18.77,36.21 -61.29,79.73 -147.78,131.38 -227.84,185.31 -52.4,18.6 -101.81,48.48 -154.11,69.62 26.51,-32.74 63.54,-55.78 96.72,-79.93 98.51,-67.33 204.95,-126.13 287.05,-223.18 -34.46,-37.83 -121.5,-30.46 -109.24,-101.85 4.92,-34.38 31.16,-73.43 67.5,-82.52 26.28,-7.41 58.19,-1.12 71.96,26.16zm-41.56 35.89c13.31,15.91 20.51,37.13 20.07,57.4 -25.95,-15.39 -60.64,-27.89 -86.74,-47.07 10.8,-14.37 32.03,-21.57 52.46,-17.34l14.21 7.02z"/>
   <path d="M820.61 761.69c32.1,-50.69 -14.5,-137.39 43.44,-175.21 17.48,-5.78 37.86,-2.82 46.22,15.83 9.68,19.85 9.4,43.92 2.65,64.45 -8.85,0.36 -8.05,-11.06 -14.52,-14.6 -8,-9.8 -19.47,-11.86 -29.53,-10.18 -41.52,37.15 -11.54,89.09 -22.1,140.15l3.9 2.37c200.45,-81.65 402.27,-160.81 609.76,-225.04 8.26,16.12 -3.76,31.8 -10.72,47.28 -21.17,8.46 -45.08,11.98 -66.25,20.44l-408.95 152.23c-149.31,63.09 -304.25,112.49 -441.05,202.92 12.36,23.54 38.36,40.2 56.78,57.16 4.63,20.07 -8.5,39.59 -20.57,54.01 -25.84,-12.86 -52.21,-38.36 -68.36,-61.75 -6.61,-37.7 12.05,-76.44 42.71,-100.49 86.28,-56.71 180.93,-94.77 275.46,-135.36 -17.13,-47.4 -55.91,-97.7 -105.12,-124.8 -13.64,6.89 -7.39,35.75 -29.5,21.47 -20.94,-16.86 -69.43,-26.26 -59.46,-60.85 0.69,-13.95 6.55,-25.59 7.29,-38.28 92.56,3.8 156.91,91.03 187.92,168.24z"/>
   <path d="M1726.06 599.16c6.78,12.27 5.42,30.11 -1.37,42.94 -5.13,2.3 -4.39,-5.05 -6.61,-8.09 -8.65,-6.97 -18.18,-9.71 -30.71,-9.2 -40.51,6.89 -27.09,53.41 -34.25,82.99 1.03,25.06 -1.07,50.25 -4.31,73.39 24.23,4.24 48.23,28.35 59.57,49.85 0.3,7.31 2.78,16.62 -5.37,22.19 -24.72,9.38 -56.43,1.27 -76.54,20.93 -39.56,29.86 -6.22,77.65 2.5,111.81 11.63,53.91 14.33,119.69 1.81,171.46l-3.22 -1.96c7.57,-70.39 0.31,-145.39 -28.28,-204.88 -12.77,-30.85 0.6,-61.74 12.02,-89.4 14.93,-18.39 34.43,-27.56 56.19,-32.64 -4.52,-8.18 -14.04,-10.93 -22.48,-12.67 -7.52,-4.92 -12.02,13.04 -16.67,1.73 12.43,-53.85 -18.82,-101.73 -61.95,-133.43 -11.62,-2.66 -19.31,-11.76 -30.88,-13.37 -2.79,8.48 -5.24,25.31 -19.24,15.43 -15.05,-9.84 -32.06,-16.46 -44.14,-30.61 1.49,-14.7 -1.28,-31.32 5.51,-44.15 53.43,1.99 110.05,31.04 137.21,81.18 7.86,13.28 12.68,28.77 19.55,43.13 7.41,-23.31 2.08,-51.33 6.31,-75.57 7.28,-26.45 1.65,-61.78 29.24,-77.55 18.54,-7.04 46.81,-6.11 56.11,16.52z"/>
   <path d="M1258.89 821.44c8.09,23.7 -7.96,40.85 -15.52,61.44 -31.86,40.62 -57.13,97.41 -104.04,119.7 -32.75,17.87 -69.52,24.53 -103.51,41.19 -0.15,-3.79 -5.02,-6.11 -1.54,-8.79 46.68,-58.98 115.25,-77.15 167.04,-127.48 -54.79,-26.74 -118.25,0.05 -170.18,16.22 -4.12,-13.74 9.85,-23.21 14.22,-33.53 1.89,-12.74 14.67,-22.15 14.22,-33.52 9.15,-10.52 13.28,-27.16 29.92,-29.15 50.73,-16.12 120.5,-34.33 169.38,-6.07z"/>
   <path d="M2546.4 941.11c10.76,46.39 -29.64,79.7 -45.78,118.34 -10.91,11.84 -19.08,28.63 -36.87,26.83l-86.75 45.33c-6.27,1.52 -7.79,-4.74 -8.05,-11.06 3.69,-2.68 8.58,-6.68 5.85,-11.63 42.93,-33.41 87.29,-63.08 128.91,-97.7 -22.37,-20.6 -50.6,0.81 -74.46,5.59 -11.22,4.26 -19.81,10.94 -31.07,13.93 -3.51,-23.91 6.98,-45.85 16.31,-65.23 38.35,-21.83 84.64,-35.12 131.91,-24.4z"/>
   <path d="M3026.73 985.96l66.21 40.32c-3.65,34.33 -31.73,59.53 -43.07,91.65 -8.64,5.42 -19.06,-1.75 -21.95,-10.49 -26.05,-17.92 -55.58,-28.1 -78.15,-53.76 3.7,-33.07 24.05,-61.75 39.28,-91.49 15.17,-0.62 23.58,19.29 37.69,23.77z"/>
   <path d="M3957.98 1037.61c-10.13,30.8 -38.31,53.47 -49.7,84.32 -21.69,-4.17 -43.65,-14.66 -64.28,-23.94 -17.95,-5.59 -33.53,-15.08 -50.32,-23.25l-44.22 63.84c-43.33,-7.08 -81.02,-30.85 -120.97,-48.2 6.23,-33.17 30.37,-62.01 49.55,-88.11 35.96,12.45 67.32,36.48 104.33,43.82l49.17 -66.58c40.11,21.14 85.22,40.81 126.44,58.11z"/>
   <path d="M1114.67 1192.91c-41.74,62.47 -93.8,120.3 -105.96,194.22 0.73,17.69 5.19,33.96 20.88,45.98 11.43,0.8 22.69,-2.2 29.96,-10.09 9.8,-8 8.97,-28.22 24.34,-23.78 2.61,32.8 -12.42,67.6 -44.55,86.64 -11.22,4.26 -23.85,4.78 -35.39,1.45 -58.19,-60.9 1.83,-140.59 31.03,-200.01l74.15 -105.58 5.06 -0.2 0.47 11.37z"/>
   <path d="M1883.25 1315.18c32.77,58.15 32.19,136.65 18.41,201.78l-3.79 0.16c17.63,-64.02 6.83,-142.06 -38.21,-190.84 -29.15,-31.72 -64.36,-56.85 -103.85,-62.83 -6.84,-12.38 -3.67,-27.7 2.23,-38.07 54.29,-3.49 100.7,47.77 125.21,89.8z"/>
   <path d="M3641.72 1165.78c-5.02,31.85 -34.42,55.84 -48.44,84.27 -24.88,41.53 -47.13,85.48 -41.16,138.4 4.31,12.48 9.94,26.17 24.2,34.44 11.63,5.85 24.01,-0.98 32.55,-8.93 9.69,-10.52 3.81,-30.54 20.13,-33.74 1.24,30.33 -5.04,62.23 -25.54,87.12 -8.33,13 -25.91,16.26 -39.97,13.04 -19.06,-1.75 -24.94,-21.76 -34.36,-35.3 -15.83,-108.21 40.03,-196.58 106.27,-279.05l6.32 -0.26z"/>
   <path d="M1958.72 1796.9c5.62,13.7 5.19,33.96 -3.29,43.18 -4.31,-12.48 -14.94,-24.7 -26.47,-28.03 -10.27,-3.37 -21.43,2.15 -24.76,13.67 -14.93,37.32 -11.64,86.56 -7.35,129.42l2.63 2.43c100.75,-43.38 198.72,-92.97 296.63,-143.82 4.47,16.27 -10.02,33.32 -14.41,49.96 -176.72,104.72 -367.42,177.11 -549.87,265.61 0.48,-19.01 3.19,-45.7 20.41,-57.8 79.74,-31.12 155.27,-72.19 232.17,-110.8 -13.03,-39.97 -45.13,-81.69 -87.55,-97.67 -7.33,6.63 2.15,21.43 -7.71,28.17 -16.69,-5.65 -33.53,-15.08 -45.47,-28.52 1.8,-17.8 2.23,-38.07 14.46,-48.69 45.39,-4.4 83.8,37.07 108,71.52 4.1,7.43 5.78,17.48 11.04,22.33 7.12,-11.68 2.65,-27.96 4.66,-40.7 8.86,-30.74 5.99,-69.87 30.39,-92.39 17.59,-3.26 36.91,4.81 46.48,22.14z"/>
   <path d="M3684.79 1752.64l0.16 3.79c-46,51.26 -93.11,106.35 -105.63,171.43 1.94,16.37 11.41,31.18 26.88,38.14 14.01,1.95 23.75,-7.31 34.92,-12.83 6.06,-6.58 5.49,-20.48 18.18,-19.74 -1.65,21.59 -9.61,43.44 -20.26,61.59 -11.86,19.47 -34.3,27.99 -55.83,27.61 -18,-6.85 -28.94,-26.66 -32.3,-46.77 10.32,-87.77 61.39,-169.61 132.46,-226.96l1.42 3.74z"/>
   <path d="M2267.09 1873.89c-20.98,43.9 -61.28,79.73 -75.85,125.9 -3.27,12.79 -3.96,26.75 4.09,37.81 6.84,12.37 20.79,13.07 33.32,10.02 20.27,0.43 19.67,-45.11 38.4,-20.56 -1.54,24.11 -18.35,46.32 -42.11,53.63 -15.21,-0.64 -34.02,3.93 -45.85,-6.98 -33.51,-45.46 7.64,-91.46 28.83,-130.3 19.28,-23.57 31.99,-53.21 59.17,-69.52z"/>
   <path d="M914.54 1985.33c31.47,26.56 66.16,39.06 100.95,54.09l49.53 -57.73 8.85 -0.36c36.63,28.88 75.43,48.8 114.17,67.47l-0.75 12.69c-21.81,23.68 -38.42,50.94 -61.65,70.89 -33.64,-17.61 -68.43,-32.64 -101.06,-56.62 -13.17,18.26 -32.56,39.31 -49.69,53.94 -44.75,-10.82 -86.17,-33.17 -122.8,-62.05 12.66,-30.9 36.63,-63.53 62.45,-82.31z"/>
   <path d="M2857.74 1957.48c0.72,17.69 -14.02,28.42 -23.56,42.74 -115.87,45.26 -242.83,66.93 -357.22,117.2 4.47,-76.13 93.55,-64.6 141.91,-89.37 80.1,-22.28 158.83,-47.03 236.25,-72.99l2.63 2.43z"/>
   <path d="M4213.38 617.34c37.17,73.77 61.8,152.89 91.46,230.63l4.21 17.61c-33.99,7.13 -27.44,-37.31 -50.53,-50.68l-2.44 3.85c18.36,134.94 26.58,268.85 39.91,405.17 8.66,152.87 36.32,306.57 26.08,462.43 -10.31,45.79 -15.53,92.72 -43.72,131.34l-8.85 0.21c12.06,-78.72 1.54,-149.32 2.11,-232.83 -23.84,-260.06 -43.89,-520.2 -71.46,-777.64 10.37,-43.26 -37.25,-77.56 -21.83,-120.94l30 -69.02 5.06 -0.12z"/>
   <path d="M867.85 999.66c-78.67,117.74 -176.77,226.74 -199.69,366.05 1.37,33.34 9.79,64.01 39.35,86.66 21.53,1.5 42.77,-4.14 56.48,-19.02 18.46,-15.07 16.9,-53.18 45.87,-44.82 4.93,61.82 -23.39,127.4 -83.95,163.28 -21.14,8.02 -44.96,9 -66.69,2.74 -109.68,-114.78 3.44,-264.96 58.48,-376.96l139.74 -198.98 9.53 -0.39 0.88 21.43z"/>
   <path d="M4193.89 1758.83l0.16 3.79c-46,51.26 -93.11,106.36 -105.63,171.43 1.94,16.37 11.41,31.17 26.88,38.13 14.01,1.96 23.75,-7.3 34.92,-12.82 6.06,-6.58 5.49,-20.48 18.18,-19.74 -1.65,21.59 -9.61,43.44 -20.26,61.59 -11.86,19.47 -34.3,27.99 -55.83,27.61 -18,-6.86 -28.94,-26.66 -32.3,-46.78 10.32,-87.77 61.39,-169.61 132.46,-226.96l1.42 3.74z"/>
   <path d="M4298.53 501.57c0.42,11.53 -8.29,18.53 -13.92,27.87 -68.35,29.58 -143.22,43.8 -210.71,76.63 2.69,-49.61 55.21,-42.17 83.74,-58.34 47.24,-14.58 93.68,-30.76 139.35,-47.74l1.55 1.58z"/>
  </g>
 </g>
</svg>